<svg data-v-fde0c5aa="" xmlns="http://www.w3.org/2000/svg" viewBox="0 0 300 300" class="iconLeft"><!----><defs data-v-fde0c5aa=""><!----></defs><rect data-v-fde0c5aa="" fill="transparent" x="0" y="0" width="300px" height="300px" class="logo-background-square"></rect><defs data-v-fde0c5aa=""><!----></defs><g data-v-fde0c5aa="" id="b7cb1e52-a15c-4b7e-9d4d-ba0f986b9b32" fill="#000000" transform="matrix(3.9120548954107015,0,0,3.9120548954107015,98.5494919760738,130.8309315721115)"><path d="M0.91 5.32L0.91 4.76L0.91 4.76Q0.91 1.99 1.77 0.74L1.77 0.74L1.77 0.74Q2.63-0.50 4.41-0.50L4.41-0.50L4.41-0.50Q6.01-0.50 6.75 0.38L6.75 0.38L6.75 0.38Q7.49 1.26 7.49 3.22L7.49 3.22L7.49 3.50L7.21 3.50L7.21 3.50Q7.21 1.46 6.57 0.62L6.57 0.62L6.57 0.62Q5.92-0.22 4.45-0.22L4.45-0.22L4.37-0.22L4.37-0.22Q2.77-0.22 1.98 0.95L1.98 0.95L1.98 0.95Q1.19 2.11 1.19 4.76L1.19 4.76L1.19 5.32L1.19 5.32Q1.19 7.97 1.98 9.13L1.98 9.13L1.98 9.13Q2.77 10.30 4.37 10.30L4.37 10.30L4.45 10.30L4.45 10.30Q7.21 10.30 7.21 7L7.21 7L7.49 7L7.49 7.20L7.49 7.20Q7.49 8.78 6.73 9.68L6.73 9.68L6.73 9.68Q5.98 10.58 4.41 10.58L4.41 10.58L4.41 10.58Q2.63 10.58 1.77 9.34L1.77 9.34L1.77 9.34Q0.91 8.09 0.91 5.32L0.91 5.32ZM14.32 5.18L14.32 10.50L14.04 10.50L14.04 5.25L14.04 5.25Q14.04 4.19 13.55 3.73L13.55 3.73L13.55 3.73Q13.06 3.28 12.07 3.28L12.07 3.28L12.07 3.28Q10.37 3.28 9.56 4.58L9.56 4.58L9.56 10.50L9.28 10.50L9.28-0.70L9.56-0.70L9.56 4.17L9.56 4.17Q10.42 3.00 12.10 3.00L12.10 3.00L12.10 3.00Q14.32 3.00 14.32 5.18L14.32 5.18ZM21.81 6.65L21.81 6.93L16.21 6.93L16.21 6.93Q16.21 8.47 16.89 9.39L16.89 9.39L16.89 9.39Q17.57 10.30 18.94 10.30L18.94 10.30L18.94 10.30Q20.26 10.30 20.89 9.65L20.89 9.65L20.89 9.65Q21.53 8.99 21.53 8.12L21.53 8.12L21.81 8.12L21.81 8.19L21.81 8.19Q21.81 9.11 21.08 9.85L21.08 9.85L21.08 9.85Q20.36 10.58 18.94 10.58L18.94 10.58L18.94 10.58Q17.43 10.58 16.68 9.58L16.68 9.58L16.68 9.58Q15.93 8.57 15.93 6.93L15.93 6.93L15.93 6.65L15.93 6.65Q15.93 5.01 16.66 4.00L16.66 4.00L16.66 4.00Q17.39 3.00 18.87 3.00L18.87 3.00L18.87 3.00Q20.36 3.00 21.08 4.00L21.08 4.00L21.08 4.00Q21.81 5.01 21.81 6.65L21.81 6.65ZM20.86 4.19L20.86 4.19L20.86 4.19Q20.19 3.28 18.87 3.28L18.87 3.28L18.87 3.28Q17.56 3.28 16.88 4.19L16.88 4.19L16.88 4.19Q16.21 5.11 16.21 6.65L16.21 6.65L21.53 6.65L21.53 6.65Q21.53 5.11 20.86 4.19ZM24.47 1.19L24.47 1.19L24.47 3.08L26.78 3.08L26.78 3.36L24.47 3.36L24.47 10.50L24.19 10.50L24.19 3.36L23.00 3.36L23.00 3.08L24.19 3.08L24.19 1.11L24.19 1.11Q24.19-0.78 26.03-0.78L26.03-0.78L26.03-0.78Q26.57-0.78 26.92-0.64L26.92-0.64L26.92-0.36L26.92-0.36Q26.64-0.50 26.08-0.50L26.08-0.50L26.08-0.50Q25.28-0.50 24.88-0.14L24.88-0.14L24.88-0.14Q24.47 0.22 24.47 1.19ZM29.23 1.19L29.23 1.19L29.23 3.08L31.54 3.08L31.54 3.36L29.23 3.36L29.23 10.50L28.95 10.50L28.95 3.36L27.76 3.36L27.76 3.08L28.95 3.08L28.95 1.11L28.95 1.11Q28.95-0.78 30.79-0.78L30.79-0.78L30.79-0.78Q31.33-0.78 31.68-0.64L31.68-0.64L31.68-0.36L31.68-0.36Q31.40-0.50 30.84-0.50L30.84-0.50L30.84-0.50Q30.04-0.50 29.64-0.14L29.64-0.14L29.64-0.14Q29.23 0.22 29.23 1.19ZM33.50 10.50L33.22 10.50L33.22 3.08L33.50 3.08L33.50 10.50ZM33.08 0.42L33.64 0.42L33.64 0.98L33.08 0.98L33.08 0.42ZM41.27 6.65L41.27 6.93L35.67 6.93L35.67 6.93Q35.67 8.47 36.35 9.39L36.35 9.39L36.35 9.39Q37.03 10.30 38.40 10.30L38.40 10.30L38.40 10.30Q39.72 10.30 40.36 9.65L40.36 9.65L40.36 9.65Q40.99 8.99 40.99 8.12L40.99 8.12L41.27 8.12L41.27 8.19L41.27 8.19Q41.27 9.11 40.54 9.85L40.54 9.85L40.54 9.85Q39.82 10.58 38.40 10.58L38.40 10.58L38.40 10.58Q36.89 10.58 36.14 9.58L36.14 9.58L36.14 9.58Q35.39 8.57 35.39 6.93L35.39 6.93L35.39 6.65L35.39 6.65Q35.39 5.01 36.12 4.00L36.12 4.00L36.12 4.00Q36.85 3.00 38.33 3.00L38.33 3.00L38.33 3.00Q39.82 3.00 40.54 4.00L40.54 4.00L40.54 4.00Q41.27 5.01 41.27 6.65L41.27 6.65ZM40.32 4.19L40.32 4.19L40.32 4.19Q39.65 3.28 38.33 3.28L38.33 3.28L38.33 3.28Q37.02 3.28 36.34 4.19L36.34 4.19L36.34 4.19Q35.67 5.11 35.67 6.65L35.67 6.65L40.99 6.65L40.99 6.65Q40.99 5.11 40.32 4.19Z"></path></g><defs data-v-fde0c5aa=""><linearGradient data-v-fde0c5aa="" gradientTransform="rotate(25)" id="4aac4a00-1621-48f4-b6dc-a549a6dd2cd1" x1="0%" y1="0%" x2="100%" y2="0%"><stop data-v-fde0c5aa="" offset="0%" stop-color="#E98E0D" stop-opacity="1"></stop><stop data-v-fde0c5aa="" offset="100%" stop-color="#1536F1" stop-opacity="1"></stop></linearGradient></defs><g data-v-fde0c5aa="" id="07a4dddb-e957-49b7-bf66-3e881d7c7a4f" stroke="none" fill="url(#4aac4a00-1621-48f4-b6dc-a549a6dd2cd1)" transform="matrix(0.6666141340315216,0,0,0.6666141340315216,31.224021772240437,116.66929329842392)"><path d="M19.438 51.35h56.963v11.562H19.438zM76.645 13.328l-.011.001c.008-.175.027-.348.027-.523C76.661 5.732 70.929 0 63.858 0c-4.572 0-8.576 2.405-10.841 6.013a11.134 11.134 0 0 0-8.433-3.859c-5.281 0-9.695 3.667-10.863 8.59a9.49 9.49 0 0 0-6.577-2.642 9.537 9.537 0 0 0-9.538 9.537c0 .883.13 1.734.354 2.547-2.748.666-4.795 3.126-4.795 6.079a6.271 6.271 0 0 0 6.271 6.271h.001v16.853H76.4V33.697c.081.002.162.014.244.014 5.629 0 10.191-4.563 10.191-10.191s-4.562-10.192-10.19-10.192zM75.833 85.259c-.224-.082-.211.271-.541 1.229-1.276 4.027-4.541 5.275-6.289 5.275s-3.953-.798-6.051-4.468c-2.097-3.67-4.893-7.427-9.437-7.427-4.093 0-5.487 2.331-5.726 2.797-.238-.466-1.633-2.797-5.725-2.797-4.544 0-7.34 3.757-9.438 7.427-2.099 3.67-4.305 4.468-6.051 4.468-1.748 0-5.014-1.248-6.289-5.275-.33-.961-.316-1.312-.539-1.229-.117.043-.125.349-.064.993.06.644 2.023 13.748 14.917 13.748 7.176 0 12.969-3.412 12.969-10.062 0 0-.008-.242.222-.271.229.028.223.271.223.271 0 6.65 5.795 10.062 12.969 10.062 12.895 0 14.855-13.104 14.917-13.748.054-.645.047-.95-.067-.993z"></path></g><!----></svg>